<?xml version="1.0" encoding="utf-8"?>
<!-- Generator: Adobe Illustrator 24.0.2, SVG Export Plug-In . SVG Version: 6.00 Build 0)  -->
<svg version="1.1" id="Layer_1" xmlns="http://www.w3.org/2000/svg" xmlns:xlink="http://www.w3.org/1999/xlink" x="0px" y="0px"
	 viewBox="0 0 325 290" style="enable-background:new 0 0 325 290;" xml:space="preserve">
<style type="text/css">
	.st0{fill:#00AEEF;stroke:#00AEEF;stroke-miterlimit:10;}
	.st1{fill:url(#SVGID_1_);stroke:#00AEEF;stroke-miterlimit:10;}
</style>
<path class="st0" d="M316.7,44.5L316.7,44.5c0-16-13-29-29-29h-94.9h-31.6c-14.5,0-26.3,11.8-26.3,26.3v31.6v148.3c0,2.2-1.8,4-4,4
	h-58c-2.2,0-4-1.8-4-4V44.5c0-16-13-29-29-29h-2.6C22.8,15.5,11,27.3,11,41.8v183.9v29c0,16,13,29,29,29h29h65.9h58h94.9
	c16,0,29-13,29-29l0,0c0-16-13-29-29-29h-90.9c-2.2,0-4-1.8-4-4V77.5c0-2.2,1.8-4,4-4h90.9C303.8,73.5,316.7,60.5,316.7,44.5z"/>
<linearGradient id="SVGID_1_" gradientUnits="userSpaceOnUse" x1="11" y1="152.4" x2="316.8" y2="152.4" gradientTransform="matrix(1 0 0 -1 0 302)">
	<stop  offset="0" style="stop-color:#1B75BC"/>
	<stop  offset="0.4709" style="stop-color:#217FC3;stop-opacity:0.5291"/>
	<stop  offset="1" style="stop-color:#2484C6;stop-opacity:0"/>
</linearGradient>
<path class="st1" d="M316.7,44.5L316.7,44.5c0-16-13-29-29-29h-94.9h-31.6c-14.5,0-26.3,11.8-26.3,26.3v31.6v148.3c0,2.2-1.8,4-4,4
	h-58c-2.2,0-4-1.8-4-4V44.5c0-16-13-29-29-29h-2.6C22.8,15.5,11,27.3,11,41.8v183.9v29c0,16,13,29,29,29h29h65.9h58h94.9
	c16,0,29-13,29-29l0,0c0-16-13-29-29-29h-90.9c-2.2,0-4-1.8-4-4V77.5c0-2.2,1.8-4,4-4h90.9C303.8,73.5,316.7,60.5,316.7,44.5z"/>
</svg>
